HIERARCHY
ROOT mixamorig:Hips
{
	OFFSET 0.000000 201.639420 0.000000
	CHANNELS 6 Xposition Yposition Zposition Xrotation Yrotation Zrotation
	JOINT mixamorig:Spine
	{
		OFFSET 0.006200 19.524994 -2.481800
		CHANNELS 3 Xrotation Yrotation Zrotation
		JOINT mixamorig:Spine1
		{
			OFFSET -0.000900 22.835007 -2.825400
			CHANNELS 3 Xrotation Yrotation Zrotation
			JOINT mixamorig:Spine2
			{
				OFFSET -0.020600 26.552490 -3.193300
				CHANNELS 3 Xrotation Yrotation Zrotation
				JOINT mixamorig:Neck
				{
					OFFSET -0.060000 30.701813 1.352200
					CHANNELS 3 Xrotation Yrotation Zrotation
					JOINT mixamorig:Head
					{
						OFFSET -0.087200 22.547607 3.670900
						CHANNELS 3 Xrotation Yrotation Zrotation
						JOINT mixamorig:HeadTop_End
						{
							OFFSET -0.830600 40.355194 7.893500
							CHANNELS 3 Xrotation Yrotation Zrotation
							End Site
							{
								OFFSET 0.000000 30.592346 0.000000
							}
						}
						JOINT mixamorig:RightEye
						{
							OFFSET -6.302100 18.118591 16.197100
							CHANNELS 3 Xrotation Yrotation Zrotation
							End Site
							{
								OFFSET 0.000000 30.592346 0.000000
							}
						}
						JOINT mixamorig:LeftEye
						{
							OFFSET 6.741500 18.382690 16.401899
							CHANNELS 3 Xrotation Yrotation Zrotation
							End Site
							{
								OFFSET 0.000000 30.592346 0.000000
							}
						}
					}
				}
				JOINT mixamorig:LeftShoulder
				{
					OFFSET 11.924900 18.230499 1.425400
					CHANNELS 3 Xrotation Yrotation Zrotation
					JOINT mixamorig:LeftArm
					{
						OFFSET 25.435989 -0.697632 -5.229300
						CHANNELS 3 Xrotation Yrotation Zrotation
						JOINT mixamorig:LeftForeArm
						{
							OFFSET 54.684776 0.000000 0.000000
							CHANNELS 3 Xrotation Yrotation Zrotation
							JOINT mixamorig:LeftHand
							{
								OFFSET 55.098175 0.000000 0.000000
								CHANNELS 3 Xrotation Yrotation Zrotation
								JOINT mixamorig:LeftHandMiddle1
								{
									OFFSET 23.369751 0.000000 0.000000
									CHANNELS 3 Xrotation Yrotation Zrotation
									JOINT mixamorig:LeftHandMiddle2
									{
										OFFSET 6.378677 0.000000 0.000000
										CHANNELS 3 Xrotation Yrotation Zrotation
										JOINT mixamorig:LeftHandMiddle3
										{
											OFFSET 6.148331 0.000000 0.000000
											CHANNELS 3 Xrotation Yrotation Zrotation
											JOINT mixamorig:LeftHandMiddle4
											{
												OFFSET 6.582504 0.000000 0.000000
												CHANNELS 3 Xrotation Yrotation Zrotation
												End Site
												{
													OFFSET -1.168900 6.395691 1.028606
												}
											}
										}
									}
								}
								JOINT mixamorig:LeftHandThumb1
								{
									OFFSET 7.235672 -3.848206 5.434273
									CHANNELS 3 Xrotation Yrotation Zrotation
									JOINT mixamorig:LeftHandThumb2
									{
										OFFSET 6.568451 -3.792297 3.792300
										CHANNELS 3 Xrotation Yrotation Zrotation
										JOINT mixamorig:LeftHandThumb3
										{
											OFFSET 6.063080 -3.500519 3.500518
											CHANNELS 3 Xrotation Yrotation Zrotation
											JOINT mixamorig:LeftHandThumb4
											{
												OFFSET 4.793182 -2.767334 2.767349
												CHANNELS 3 Xrotation Yrotation Zrotation
												End Site
												{
													OFFSET 0.101639 6.054260 1.275483
												}
											}
										}
									}
								}
								JOINT mixamorig:LeftHandIndex1
								{
									OFFSET 23.101074 -0.309540 4.992809
									CHANNELS 3 Xrotation Yrotation Zrotation
									JOINT mixamorig:LeftHandIndex2
									{
										OFFSET 6.226883 0.000000 0.000000
										CHANNELS 3 Xrotation Yrotation Zrotation
										JOINT mixamorig:LeftHandIndex3
										{
											OFFSET 6.094330 0.000000 0.000000
											CHANNELS 3 Xrotation Yrotation Zrotation
											JOINT mixamorig:LeftHandIndex4
											{
												OFFSET 5.482605 0.000000 0.000000
												CHANNELS 3 Xrotation Yrotation Zrotation
												End Site
												{
													OFFSET -1.427902 5.233032 0.797164
												}
											}
										}
									}
								}
								JOINT mixamorig:LeftHandRing1
								{
									OFFSET 22.299240 0.021149 -3.964172
									CHANNELS 3 Xrotation Yrotation Zrotation
									JOINT mixamorig:LeftHandRing2
									{
										OFFSET 6.321869 0.000000 0.000000
										CHANNELS 3 Xrotation Yrotation Zrotation
										JOINT mixamorig:LeftHandRing3
										{
											OFFSET 5.899796 0.000000 0.000000
											CHANNELS 3 Xrotation Yrotation Zrotation
											JOINT mixamorig:LeftHandRing4
											{
												OFFSET 6.517899 0.000000 0.000000
												CHANNELS 3 Xrotation Yrotation Zrotation
												End Site
												{
													OFFSET -1.637299 6.232208 0.980890
												}
											}
										}
									}
								}
								JOINT mixamorig:LeftHandPinky1
								{
									OFFSET 20.463791 -0.302338 -8.562233
									CHANNELS 3 Xrotation Yrotation Zrotation
									JOINT mixamorig:LeftHandPinky2
									{
										OFFSET 6.908646 0.000000 0.000000
										CHANNELS 3 Xrotation Yrotation Zrotation
										JOINT mixamorig:LeftHandPinky3
										{
											OFFSET 4.622849 0.000000 0.000000
											CHANNELS 3 Xrotation Yrotation Zrotation
											JOINT mixamorig:LeftHandPinky4
											{
												OFFSET 5.216080 0.000000 0.000000
												CHANNELS 3 Xrotation Yrotation Zrotation
												End Site
												{
													OFFSET -0.606308 5.116241 0.814926
												}
											}
										}
									}
								}
							}
						}
					}
				}
				JOINT mixamorig:RightShoulder
				{
					OFFSET -12.001300 18.284088 1.348900
					CHANNELS 3 Xrotation Yrotation Zrotation
					JOINT mixamorig:RightArm
					{
						OFFSET -25.308500 -0.751312 -5.164599
						CHANNELS 3 Xrotation Yrotation Zrotation
						JOINT mixamorig:RightForeArm
						{
							OFFSET -54.684429 0.000000 0.000000
							CHANNELS 3 Xrotation Yrotation Zrotation
							JOINT mixamorig:RightHand
							{
								OFFSET -55.150291 0.000000 0.000000
								CHANNELS 3 Xrotation Yrotation Zrotation
								JOINT mixamorig:RightHandMiddle1
								{
									OFFSET -23.317566 0.000000 0.000000
									CHANNELS 3 Xrotation Yrotation Zrotation
									JOINT mixamorig:RightHandMiddle2
									{
										OFFSET -6.378403 0.000000 0.000000
										CHANNELS 3 Xrotation Yrotation Zrotation
										JOINT mixamorig:RightHandMiddle3
										{
											OFFSET -6.148193 0.000000 0.000000
											CHANNELS 3 Xrotation Yrotation Zrotation
											JOINT mixamorig:RightHandMiddle4
											{
												OFFSET -6.583389 0.000000 0.000000
												CHANNELS 3 Xrotation Yrotation Zrotation
												End Site
												{
													OFFSET 1.171692 6.395905 1.029786
												}
											}
										}
									}
								}
								JOINT mixamorig:RightHandThumb1
								{
									OFFSET -7.190521 -3.860474 5.435846
									CHANNELS 3 Xrotation Yrotation Zrotation
									JOINT mixamorig:RightHandThumb2
									{
										OFFSET -6.567429 -3.791718 3.791708
										CHANNELS 3 Xrotation Yrotation Zrotation
										JOINT mixamorig:RightHandThumb3
										{
											OFFSET -6.062469 -3.500153 3.500166
											CHANNELS 3 Xrotation Yrotation Zrotation
											JOINT mixamorig:RightHandThumb4
											{
												OFFSET -4.792618 -2.767029 2.767022
												CHANNELS 3 Xrotation Yrotation Zrotation
												End Site
												{
													OFFSET -0.100327 6.053253 1.276754
												}
											}
										}
									}
								}
								JOINT mixamorig:RightHandIndex1
								{
									OFFSET -23.048981 -0.310791 4.992554
									CHANNELS 3 Xrotation Yrotation Zrotation
									JOINT mixamorig:RightHandIndex2
									{
										OFFSET -6.227539 0.000000 0.000000
										CHANNELS 3 Xrotation Yrotation Zrotation
										JOINT mixamorig:RightHandIndex3
										{
											OFFSET -6.095047 0.000000 0.000000
											CHANNELS 3 Xrotation Yrotation Zrotation
											JOINT mixamorig:RightHandIndex4
											{
												OFFSET -5.484772 0.000000 0.000000
												CHANNELS 3 Xrotation Yrotation Zrotation
												End Site
												{
													OFFSET 1.420593 5.237305 0.797056
												}
											}
										}
									}
								}
								JOINT mixamorig:RightHandRing1
								{
									OFFSET -22.246323 0.020569 -3.963762
									CHANNELS 3 Xrotation Yrotation Zrotation
									JOINT mixamorig:RightHandRing2
									{
										OFFSET -6.322128 0.000000 0.000000
										CHANNELS 3 Xrotation Yrotation Zrotation
										JOINT mixamorig:RightHandRing3
										{
											OFFSET -5.900024 0.000000 0.000000
											CHANNELS 3 Xrotation Yrotation Zrotation
											JOINT mixamorig:RightHandRing4
											{
												OFFSET -6.518356 0.000000 0.000000
												CHANNELS 3 Xrotation Yrotation Zrotation
												End Site
												{
													OFFSET 1.636398 6.232697 0.982186
												}
											}
										}
									}
								}
								JOINT mixamorig:RightHandPinky1
								{
									OFFSET -20.411011 -0.303314 -8.561701
									CHANNELS 3 Xrotation Yrotation Zrotation
									JOINT mixamorig:RightHandPinky2
									{
										OFFSET -6.907349 0.000000 0.000000
										CHANNELS 3 Xrotation Yrotation Zrotation
										JOINT mixamorig:RightHandPinky3
										{
											OFFSET -4.623840 0.000000 0.000000
											CHANNELS 3 Xrotation Yrotation Zrotation
											JOINT mixamorig:RightHandPinky4
											{
												OFFSET -5.218353 0.000000 0.000000
												CHANNELS 3 Xrotation Yrotation Zrotation
												End Site
												{
													OFFSET 0.602097 5.118835 0.816273
												}
											}
										}
									}
								}
							}
						}
					}
				}
			}
		}
	}
	JOINT mixamorig:LeftUpLeg
	{
		OFFSET 18.168400 -13.561905 -0.039000
		CHANNELS 3 Xrotation Yrotation Zrotation
		JOINT mixamorig:LeftLeg
		{
			OFFSET 0.577358 -80.825211 -3.695000
			CHANNELS 3 Xrotation Yrotation Zrotation
			JOINT mixamorig:LeftFoot
			{
				OFFSET -0.577356 -83.370262 -6.520700
				CHANNELS 3 Xrotation Yrotation Zrotation
				JOINT mixamorig:LeftToeBase
				{
					OFFSET 0.750401 -20.798306 25.135401
					CHANNELS 3 Xrotation Yrotation Zrotation
					JOINT mixamorig:LeftToe_End
					{
						OFFSET -0.000500 0.001200 19.917799
						CHANNELS 3 Xrotation Yrotation Zrotation
						End Site
						{
							OFFSET 0.000000 19.917805 0.000000
						}
					}
				}
			}
		}
	}
	JOINT mixamorig:RightUpLeg
	{
		OFFSET -18.162500 -13.585098 -0.041000
		CHANNELS 3 Xrotation Yrotation Zrotation
		JOINT mixamorig:RightLeg
		{
			OFFSET -0.595024 -80.945297 -3.631900
			CHANNELS 3 Xrotation Yrotation Zrotation
			JOINT mixamorig:RightFoot
			{
				OFFSET 0.595024 -83.218193 -6.561200
				CHANNELS 3 Xrotation Yrotation Zrotation
				JOINT mixamorig:RightToeBase
				{
					OFFSET -0.753601 -20.807106 25.115000
					CHANNELS 3 Xrotation Yrotation Zrotation
					JOINT mixamorig:RightToe_End
					{
						OFFSET 0.000299 0.001700 19.918200
						CHANNELS 3 Xrotation Yrotation Zrotation
						End Site
						{
							OFFSET 0.000000 19.918203 0.000000
						}
					}
				}
			}
		}
	}
}
MOTION
Frames: 5
Frame Time: 0.033333
0.401402 314.198181 99.057091 -0.600080 -1.004624 -1.963244 1.135161 -0.934734 -0.125821 2.317495 -2.443478 -0.587640 2.315913 -2.447795 -0.584733 0.513619 2.141654 -0.086813 8.917665 10.542954 -2.200047 0.000001 -0.000000 -0.000000 0.000001 -0.000000 -0.000000 0.000001 -0.000000 -0.000000 0.526630 2.727809 -9.613758 -26.019442 -30.501163 -56.639381 -0.000019 -71.019829 -0.000020 -23.408069 -3.852200 -9.999724 0.151429 1.438974 -12.014211 0.051603 0.843126 -7.004385 0.012854 0.421389 -3.494011 0.000002 -0.000001 0.000000 1.044226 20.691249 10.885315 -2.615108 5.271269 6.610193 -3.978616 0.427091 5.023774 0.000001 -0.000001 0.000000 0.151833 1.440861 -12.030197 0.051362 0.841214 -6.988399 0.012854 0.421386 -3.494008 0.000000 -0.000000 -0.000002 0.151831 1.440865 -12.030201 0.051368 0.841215 -6.988402 0.012852 0.421389 -3.494008 -0.000000 0.000000 -0.000002 0.982228 5.409553 -11.569433 0.040864 -3.213533 -7.495339 0.012853 0.421390 -3.494010 -0.000001 -0.000001 -0.000001 1.573728 9.979565 10.236208 1.058918 22.340842 52.375919 -0.000014 61.425906 0.000015 -11.758034 -10.142366 9.386977 0.102820 -1.193778 9.845489 0.148035 -1.429975 11.819955 0.037105 -0.718803 5.909055 -0.000002 -0.000001 0.000002 3.856683 -21.048044 -12.340610 6.693725 -11.742785 -1.251877 -0.241514 -1.392392 -2.796966 -0.000003 -0.000001 -0.000002 0.102826 -1.193780 9.845491 0.148037 -1.429972 11.819949 0.037100 -0.718803 5.909069 0.000001 -0.000004 0.000002 0.102821 -1.193786 9.845485 0.148034 -1.429975 11.819966 0.037104 -0.718805 5.909051 -0.000002 -0.000003 0.000002 0.102822 -1.193777 9.845490 0.148038 -1.429973 11.819951 0.037095 -0.718809 5.909069 0.000002 -0.000001 0.000001 -13.511489 10.234928 9.434047 55.227499 -1.420937 -0.061108 17.098924 -0.057582 0.193618 0.393639 -0.000001 0.000002 0.000003 -0.000001 0.000000 -28.621756 -9.978810 -8.119689 25.781167 -1.091039 0.384460 20.464261 2.325267 18.895220 -0.135010 -0.000006 0.000001 0.000000 0.000000 -0.000001 
-0.807631 311.513794 105.777390 -2.077759 0.782890 -1.251560 1.526633 -0.918343 -0.535005 3.140173 -2.307725 -0.691998 3.135404 -2.316193 -0.688251 0.929423 1.782038 0.138635 8.872346 9.007677 -1.342436 -0.000002 0.000001 -0.000000 -0.000002 0.000001 -0.000000 -0.000002 0.000001 -0.000000 0.587155 2.300707 -9.746473 -23.093616 -29.816269 -55.041527 0.000050 -72.003383 0.000047 -23.541162 -2.612481 -9.331354 0.151429 1.438975 -12.014210 0.051601 0.843126 -7.004375 0.012855 0.421389 -3.494012 0.000002 0.000001 0.000001 1.044228 20.691249 10.885313 -2.615105 5.271272 6.610196 -3.978618 0.427091 5.023774 0.000000 0.000002 0.000000 0.151832 1.440861 -12.030199 0.051363 0.841214 -6.988401 0.012856 0.421387 -3.494016 0.000001 -0.000000 -0.000001 0.151830 1.440865 -12.030205 0.051369 0.841215 -6.988404 0.012853 0.421387 -3.494014 0.000000 0.000001 0.000004 0.982227 5.409553 -11.569436 0.040864 -3.213534 -7.495337 0.012851 0.421391 -3.494010 0.000001 0.000000 0.000001 1.716218 11.123804 10.196871 1.101499 17.623012 53.133896 -0.000026 57.429754 0.000029 -9.786231 -9.061923 12.162769 0.102822 -1.193778 9.845484 0.148037 -1.429974 11.819954 0.037102 -0.718807 5.909061 -0.000001 -0.000001 0.000001 3.856681 -21.048042 -12.340612 6.693732 -11.742783 -1.251874 -0.241510 -1.392392 -2.796965 -0.000006 -0.000001 0.000001 0.102825 -1.193777 9.845489 0.148037 -1.429969 11.819947 0.037103 -0.718810 5.909067 0.000004 0.000005 -0.000001 0.102822 -1.193781 9.845479 0.148033 -1.429972 11.819968 0.037105 -0.718809 5.909052 -0.000001 0.000003 -0.000000 0.102819 -1.193775 9.845488 0.148039 -1.429968 11.819960 0.037104 -0.718801 5.909068 -0.000003 0.000003 0.000003 -18.836004 11.064643 9.150357 60.494214 -0.831044 0.717774 16.441022 -0.023018 0.881778 0.656528 -0.000001 0.000001 0.000003 -0.000000 0.000001 -25.063458 -10.912293 -8.511906 18.223484 -1.672615 0.068894 25.015679 3.417186 20.296450 -0.260384 0.000001 0.000001 0.000000 -0.000001 0.000002 
-1.861286 307.118958 112.581299 -3.165528 2.017496 -0.581528 1.902123 -0.812330 -0.898880 3.902079 -1.974498 -0.760220 3.896080 -1.986641 -0.756868 1.446891 1.371291 0.417361 9.068616 7.299690 -0.518603 0.000001 -0.000000 0.000000 0.000001 -0.000000 0.000000 0.000001 -0.000000 0.000000 0.691819 1.394433 -9.894611 -19.428690 -28.229115 -53.182967 0.000054 -71.936406 0.000050 -22.327516 -1.098943 -8.832410 0.151434 1.438976 -12.014213 0.051600 0.843125 -7.004380 0.012854 0.421388 -3.494004 0.000001 -0.000000 0.000001 1.044230 20.691249 10.885317 -2.615108 5.271269 6.610197 -3.978617 0.427088 5.023774 0.000000 -0.000002 0.000000 0.151833 1.440861 -12.030195 0.051362 0.841214 -6.988403 0.012855 0.421389 -3.494013 -0.000002 -0.000001 -0.000001 0.151830 1.440867 -12.030200 0.051368 0.841215 -6.988400 0.012854 0.421389 -3.494009 0.000001 0.000000 -0.000003 0.982228 5.409553 -11.569431 0.040868 -3.213533 -7.495339 0.012853 0.421391 -3.494008 0.000002 0.000000 0.000003 1.848218 12.032930 10.164172 1.122721 13.543906 53.939209 0.000022 53.642919 -0.000030 -8.051181 -7.668576 14.721160 0.102824 -1.193778 9.845486 0.148034 -1.429978 11.819954 0.037097 -0.718813 5.909056 0.000000 -0.000001 -0.000003 3.856684 -21.048044 -12.340606 6.693732 -11.742789 -1.251874 -0.241509 -1.392394 -2.796965 -0.000001 -0.000001 0.000002 0.102827 -1.193780 9.845489 0.148038 -1.429972 11.819952 0.037103 -0.718806 5.909063 0.000002 -0.000003 -0.000005 0.102831 -1.193782 9.845481 0.148032 -1.429975 11.819969 0.037101 -0.718807 5.909052 -0.000000 -0.000000 -0.000001 0.102828 -1.193777 9.845489 0.148038 -1.429971 11.819957 0.037099 -0.718809 5.909072 -0.000002 -0.000000 -0.000001 -23.735968 11.632104 8.261389 62.377953 0.238597 1.129389 14.489541 -0.092484 0.105241 0.765411 -0.000004 0.000005 0.000003 0.000000 0.000001 -23.484026 -11.722189 -8.930399 14.491377 -2.482539 -0.388162 27.450115 4.162903 21.008193 -0.323781 0.000002 -0.000008 -0.000000 -0.000001 -0.000002 
-2.744857 300.982849 119.754608 -3.895000 2.385623 -0.005811 2.187863 -0.647097 -1.223937 4.462144 -1.476320 -0.774574 4.456940 -1.491019 -0.772317 2.133180 0.965214 0.748948 9.604356 5.719692 0.086186 -0.000001 -0.000000 0.000000 -0.000001 -0.000000 0.000000 -0.000001 -0.000000 0.000000 0.769693 0.633982 -10.036798 -14.515431 -25.799858 -51.304573 -0.000009 -71.402224 0.000013 -19.722096 0.308117 -8.350504 0.151432 1.438975 -12.014208 0.051602 0.843127 -7.004382 0.012854 0.421389 -3.494011 -0.000001 0.000000 -0.000001 1.044230 20.691249 10.885319 -2.615109 5.271269 6.610193 -3.978617 0.427089 5.023773 0.000002 0.000001 0.000000 0.151834 1.440861 -12.030191 0.051365 0.841214 -6.988401 0.012855 0.421388 -3.494014 -0.000002 -0.000001 -0.000001 0.151832 1.440868 -12.030202 0.051369 0.841214 -6.988411 0.012855 0.421390 -3.494013 -0.000000 -0.000001 -0.000002 0.982227 5.409552 -11.569428 0.040864 -3.213534 -7.495338 0.012850 0.421391 -3.494005 0.000001 -0.000000 -0.000002 1.879996 12.000703 10.178119 1.876072 10.917776 54.687761 -0.000007 50.767659 0.000009 -6.537907 -6.250829 16.558472 0.102822 -1.193782 9.845485 0.148038 -1.429974 11.819952 0.037105 -0.718808 5.909063 0.000000 0.000000 -0.000002 3.856683 -21.048044 -12.340612 6.693731 -11.742786 -1.251871 -0.241513 -1.392392 -2.796961 0.000000 -0.000001 0.000000 0.102823 -1.193776 9.845490 0.148034 -1.429963 11.819950 0.037103 -0.718813 5.909068 0.000002 0.000002 0.000001 0.102826 -1.193784 9.845480 0.148032 -1.429970 11.819965 0.037100 -0.718807 5.909048 -0.000002 -0.000001 -0.000003 0.102822 -1.193777 9.845489 0.148037 -1.429972 11.819953 0.037095 -0.718808 5.909064 0.000002 -0.000000 0.000001 -27.025588 11.802922 7.039994 59.784345 1.246607 0.818820 12.038574 -0.219815 -2.065264 0.785351 -0.000002 -0.000003 -0.000003 -0.000000 -0.000000 -23.118749 -12.343551 -9.333975 12.929535 -3.053517 -0.670626 28.863143 4.585770 21.371305 -0.436633 0.000010 -0.000008 0.000000 -0.000001 0.000001 
-3.525115 292.869629 127.527603 -4.376847 1.919480 0.498833 2.335958 -0.475089 -1.564476 4.743609 -0.890529 -0.749387 4.740416 -0.907001 -0.748107 3.005769 0.601050 1.127133 10.396408 4.447605 0.415732 -0.000001 0.000001 -0.000000 -0.000001 0.000001 -0.000000 -0.000001 0.000001 -0.000000 0.799222 0.257177 -10.109243 -8.045720 -22.250125 -49.613135 -0.000081 -71.341797 -0.000081 -18.171677 1.388915 -7.842744 0.151429 1.438976 -12.014216 0.051600 0.843126 -7.004382 0.012854 0.421391 -3.494007 -0.000000 0.000002 0.000005 1.044229 20.691252 10.885315 -2.615107 5.271268 6.610194 -3.978617 0.427086 5.023775 0.000002 0.000002 -0.000001 0.151832 1.440862 -12.030200 0.051365 0.841215 -6.988407 0.012856 0.421393 -3.494015 -0.000000 -0.000001 0.000002 0.151832 1.440870 -12.030208 0.051363 0.841211 -6.988400 0.012853 0.421387 -3.494007 0.000001 -0.000001 0.000001 0.982225 5.409550 -11.569432 0.040868 -3.213531 -7.495338 0.012850 0.421390 -3.494005 -0.000001 -0.000001 0.000002 1.766732 10.944356 10.222895 3.996904 9.558616 55.428467 0.000007 49.361917 -0.000005 -4.662130 -5.233197 16.690202 0.102829 -1.193773 9.845491 0.148030 -1.429980 11.819951 0.037105 -0.718808 5.909058 -0.000001 0.000002 0.000001 3.856685 -21.048041 -12.340611 6.693727 -11.742787 -1.251878 -0.241510 -1.392394 -2.796964 -0.000001 -0.000001 0.000001 0.102825 -1.193775 9.845494 0.148037 -1.429971 11.819946 0.037105 -0.718806 5.909069 0.000001 0.000002 0.000002 0.102825 -1.193780 9.845485 0.148036 -1.429971 11.819967 0.037102 -0.718803 5.909046 -0.000003 0.000001 0.000001 0.102825 -1.193773 9.845491 0.148040 -1.429973 11.819951 0.037097 -0.718807 5.909068 0.000000 0.000000 0.000001 -27.825489 11.418484 5.633788 52.574432 1.997682 0.010976 9.503040 -0.260242 -5.287104 0.906969 0.000007 -0.000009 0.000000 0.000000 -0.000001 -22.277856 -13.001094 -9.542857 10.352264 -3.326250 -0.605758 31.080024 5.000714 21.222825 -0.666161 0.000000 -0.000002 0.000000 0.000000 0.000000 
